# xmcd CD database file
#
# Track frame offsets:
#	150
#	29875
#	56030
#	70272
#	95655
#	116312
#	154687
#	181262
#	200362
#	213440
#	233705
#	285395
#
# Disc length: 4306 seconds
#
# Revision: 0
# Processed by: cddbd v1.5PL3 Copyright (c) Steve Scherf et al.
# Submitted via: CDex 1.51
#
DISCID=a910d00c
DTITLE=Clark - Boland Big Band and Jimmy Guiffre with Bob Brookmeyer and Jim Hall - Clarke - Boland Big Band/ Western Suite
DYEAR=1900
DGENRE=Jazz
TTITLE0=Long Note Blues (Here Is Cecco Beppe]
TTITLE1=Get Out Of Town
TTITLE2=Sonor
TTITLE3=Speedy Reeds
TTITLE4=Old Stuff
TTITLE5=Om Mani Padme Hum
TTITLE6=Western Suite - 1st Movement: Pony Express
TTITLE7=Western Suite - 2nd Movement: Apaches
TTITLE8=Western Suite - 3rd Movement: Saturday Night Dance
TTITLE9=Western Suite - 4th Movement: Big Pow Wow
TTITLE10=Topsy
TTITLE11=Blue Monk
EXTD=
EXTT0=
EXTT1=
EXTT2=
EXTT3=
EXTT4=
EXTT5=
EXTT6=
EXTT7=
EXTT8=
EXTT9=
EXTT10=
EXTT11=
PLAYORDER=
